<?xml version="1.0" encoding="utf-8"?>
<!-- Generator: Adobe Illustrator 16.0.0, SVG Export Plug-In . SVG Version: 6.00 Build 0)  -->
<!DOCTYPE svg PUBLIC "-//W3C//DTD SVG 1.1//EN" "http://www.w3.org/Graphics/SVG/1.1/DTD/svg11.dtd">
<svg version="1.1" id="Capa_1" xmlns="http://www.w3.org/2000/svg" xmlns:xlink="http://www.w3.org/1999/xlink" x="0px" y="0px"
	 width="2500px" height="317px" viewBox="0 0 2500 317" enable-background="new 0 0 2500 317" xml:space="preserve">
<g>
	<path fill="#FFFFFF" d="M458.274,109.778l15.07-53.351h22.55l-26.95,78.101h-21.34l-27.28-78.101h22.66L458.274,109.778z"/>
	<path fill="#FFFFFF" d="M501.833,56.428h21.45v78.101h-21.45V56.428z"/>
	<path fill="#FFFFFF" d="M578.722,56.428l24.86,78.101h-21.78l-4.73-15.29h-20.79l-4.62,15.29h-21.89l24.97-78.101H578.722z
		 M566.732,77.438l-7.26,27.5h14.19L566.732,77.438z"/>
	<path fill="#FFFFFF" d="M612.161,115.278c2.347,0.953,5.097,1.43,8.25,1.43c2.273,0,4.106-0.385,5.5-1.155
		c1.393-0.77,2.438-1.962,3.135-3.575s1.173-3.722,1.43-6.325c0.256-2.604,0.385-5.775,0.385-9.515v-39.71h21.45v39.71
		c0,5.94-0.348,11.33-1.045,16.17c-0.697,4.84-2.108,9.02-4.235,12.54c-2.127,3.52-5.317,6.215-9.57,8.085
		c-4.253,1.87-9.937,2.805-17.05,2.805c-3.374,0-6.454-0.403-9.24-1.21s-5.354-2.017-7.7-3.63l4.51-17.49
		C608.421,113.702,609.814,114.325,612.161,115.278z"/>
	<path fill="#FFFFFF" d="M720.509,134.528h-55.66V56.428h54.67v18.7h-33.22v11h28.38v17.38h-28.38v12.32h34.21V134.528z"/>
	<path fill="#FFFFFF" d="M810.927,134.528h-55.66V56.428h54.67v18.7h-33.22v11h28.38v17.38h-28.38v12.32h34.21V134.528z"/>
	<path fill="#FFFFFF" d="M842.385,134.528h-21.45V56.428h16.72l31.35,39.71v-39.71h21.45v78.101h-17.05l-31.02-38.39V134.528z"/>
	<path fill="#FFFFFF" d="M984.284,134.528h-55.66V56.428h54.67v18.7h-33.22v11h28.38v17.38h-28.38v12.32h34.21V134.528z"/>
	<path fill="#FFFFFF" d="M994.292,56.428h21.45v59.4h35.42v18.7h-56.871V56.428z"/>
	<path fill="#FFFFFF" d="M1115.511,75.128v59.4h-21.45v-59.4h-22.55v-18.7h66.44v18.7H1115.511z"/>
	<path fill="#FFFFFF" d="M1145.76,56.428h21.45v78.101h-21.45V56.428z"/>
	<path fill="#FFFFFF" d="M1236.289,134.528h-55.66V56.428h54.67v18.7h-33.22v11h28.38v17.38h-28.38v12.32h34.21V134.528z"/>
	<path fill="#FFFFFF" d="M1305.367,93.388l-13.09,28.93h-11.44l-13.09-28.93v41.14h-21.45V56.428h23.43l16.83,36.74l16.94-36.74
		h23.32v78.101h-21.45V93.388z"/>
	<path fill="#FFFFFF" d="M1340.236,56.428h33.66c3.812,0,7.333,0.77,10.56,2.31s6.014,3.612,8.36,6.215
		c2.347,2.603,4.162,5.518,5.445,8.745c1.283,3.227,1.924,6.49,1.924,9.791c0,4.62-1.081,8.983-3.244,13.09
		c-2.164,4.106-5.17,7.462-9.02,10.065c-3.851,2.604-8.342,3.905-13.476,3.905h-12.761v23.98h-21.449V56.428z M1373.016,91.848
		c0.881,0,1.724-0.257,2.53-0.77s1.485-1.394,2.035-2.64s0.825-2.896,0.825-4.95c0-2.2-0.312-3.905-0.936-5.115
		s-1.393-2.053-2.31-2.53c-0.917-0.477-1.815-0.715-2.694-0.715h-10.781v16.72H1373.016z"/>
	<path fill="#FFFFFF" d="M1427.795,131.833c-4.841-2.237-9.002-5.244-12.486-9.02c-3.482-3.777-6.159-8.03-8.029-12.76
		s-2.805-9.625-2.805-14.685c0-5.207,0.99-10.157,2.97-14.85s4.748-8.892,8.306-12.595c3.557-3.703,7.772-6.618,12.649-8.745
		c4.876-2.126,10.212-3.19,16.005-3.19c5.939,0,11.33,1.119,16.17,3.355c4.84,2.237,8.984,5.262,12.43,9.075
		c3.447,3.813,6.105,8.085,7.976,12.815s2.806,9.588,2.806,14.575c0,5.133-0.973,10.047-2.916,14.74s-4.693,8.892-8.25,12.595
		c-3.557,3.704-7.754,6.637-12.595,8.8c-4.84,2.163-10.193,3.245-16.06,3.245C1438.024,135.188,1432.635,134.07,1427.795,131.833z
		 M1427.354,103.233c0.733,2.457,1.833,4.657,3.3,6.6s3.318,3.483,5.555,4.62c2.237,1.137,4.896,1.705,7.976,1.705
		s5.757-0.586,8.03-1.76s4.125-2.769,5.555-4.785s2.493-4.253,3.189-6.71c0.697-2.457,1.045-4.969,1.045-7.535
		c0-2.64-0.366-5.17-1.1-7.59c-0.732-2.42-1.833-4.602-3.3-6.545s-3.337-3.465-5.61-4.565s-4.913-1.65-7.92-1.65
		c-3.08,0-5.738,0.586-7.975,1.76s-4.088,2.732-5.555,4.675s-2.549,4.143-3.246,6.6c-0.696,2.457-1.045,4.968-1.045,7.535
		C1426.254,98.228,1426.621,100.776,1427.354,103.233z"/>
	<path fill="#FFFFFF" d="M1586.744,134.528h-21.451v-30.58h-26.18v30.58h-21.45V56.428h21.45v28.82h26.18v-28.82h21.451V134.528z"/>
	<path fill="#FFFFFF" d="M1642.184,56.428l24.859,78.101h-21.779l-4.73-15.29h-20.79l-4.62,15.29h-21.891l24.971-78.101H1642.184z
		 M1630.193,77.438l-7.26,27.5h14.189L1630.193,77.438z"/>
	<path fill="#FFFFFF" d="M1668.748,80.793c1.797-4.583,4.418-8.745,7.865-12.485c3.447-3.74,7.645-6.729,12.596-8.965
		c4.949-2.236,10.541-3.355,16.774-3.355c7.479,0,14.007,1.559,19.58,4.675s9.717,7.242,12.431,12.375l-16.391,11.66
		c-0.953-2.567-2.328-4.547-4.125-5.94c-1.797-1.393-3.74-2.365-5.83-2.915c-2.09-0.55-4.125-0.825-6.105-0.825
		c-3.08,0-5.738,0.605-7.975,1.815s-4.07,2.805-5.5,4.785s-2.493,4.18-3.189,6.6c-0.697,2.42-1.045,4.84-1.045,7.26
		c0,2.713,0.402,5.317,1.209,7.81s1.98,4.712,3.521,6.655s3.429,3.465,5.665,4.565s4.748,1.65,7.535,1.65
		c1.98,0,3.996-0.312,6.05-0.935c2.054-0.623,3.923-1.632,5.61-3.025c1.687-1.394,2.97-3.263,3.85-5.61l17.49,10.45
		c-1.54,3.813-4.106,7.077-7.7,9.79c-3.593,2.713-7.663,4.785-12.21,6.215c-4.547,1.43-9.057,2.145-13.529,2.145
		c-5.794,0-11.092-1.155-15.896-3.465c-4.803-2.31-8.945-5.39-12.43-9.24c-3.482-3.85-6.178-8.177-8.085-12.98
		c-1.906-4.803-2.86-9.698-2.86-14.685C1666.053,90.051,1666.951,85.376,1668.748,80.793z"/>
	<path fill="#FFFFFF" d="M1746.353,56.428h21.45v78.101h-21.45V56.428z"/>
	<path fill="#FFFFFF" d="M1823.242,56.428l24.859,78.101h-21.78l-4.729-15.29h-20.791l-4.619,15.29h-21.891l24.971-78.101H1823.242z
		 M1811.252,77.438l-7.261,27.5h14.19L1811.252,77.438z"/>
	<path fill="#FFFFFF" d="M1876.039,56.428h21.45v59.4h35.421v18.7h-56.871V56.428z"/>
	<path fill="#FFFFFF" d="M1982.409,56.428l24.86,78.101h-21.781l-4.729-15.29h-20.79l-4.62,15.29h-21.89l24.97-78.101H1982.409z
		 M1970.419,77.438l-7.261,27.5h14.191L1970.419,77.438z"/>
	<path fill="none" stroke="#FFFFFF" stroke-width="2" stroke-miterlimit="10" d="M469.986,188.428h21.45v78.101h-21.45V188.428z"/>
	<path fill="none" stroke="#FFFFFF" stroke-width="2" stroke-miterlimit="10" d="M526.305,266.528h-21.45v-78.101h16.72l31.35,39.71
		v-39.71h21.45v78.101h-17.05l-31.02-38.39V266.528z"/>
	<path fill="none" stroke="#FFFFFF" stroke-width="2" stroke-miterlimit="10" d="M618.154,241.778l15.07-53.351h22.55l-26.95,78.101
		h-21.34l-27.28-78.101h22.66L618.154,241.778z"/>
	<path fill="none" stroke="#FFFFFF" stroke-width="2" stroke-miterlimit="10" d="M717.374,266.528h-55.66v-78.101h54.67v18.7h-33.22
		v11h28.38v17.38h-28.38v12.32h34.21V266.528z"/>
	<path fill="none" stroke="#FFFFFF" stroke-width="2" stroke-miterlimit="10" d="M748.832,266.528h-21.45v-78.101h16.72l31.35,39.71
		v-39.71h21.45v78.101h-17.05l-31.02-38.39V266.528z"/>
	<path fill="none" stroke="#FFFFFF" stroke-width="2" stroke-miterlimit="10" d="M808.727,212.793
		c1.796-4.583,4.418-8.745,7.865-12.485c3.447-3.74,7.645-6.729,12.595-8.965c4.95-2.236,10.542-3.355,16.775-3.355
		c7.48,0,14.007,1.559,19.58,4.675c5.574,3.117,9.717,7.242,12.43,12.375l-16.39,11.66c-0.953-2.567-2.328-4.547-4.125-5.94
		c-1.796-1.393-3.74-2.365-5.83-2.915c-2.09-0.55-4.125-0.825-6.105-0.825c-3.08,0-5.738,0.605-7.975,1.815
		c-2.236,1.21-4.07,2.805-5.5,4.785c-1.43,1.98-2.493,4.18-3.19,6.6c-0.697,2.42-1.045,4.84-1.045,7.26
		c0,2.713,0.403,5.317,1.21,7.81s1.98,4.712,3.52,6.655s3.428,3.465,5.665,4.565s4.749,1.65,7.535,1.65
		c1.98,0,3.997-0.312,6.05-0.935c2.053-0.623,3.923-1.632,5.61-3.025c1.687-1.394,2.97-3.263,3.85-5.61l17.49,10.45
		c-1.54,3.813-4.106,7.077-7.7,9.79c-3.593,2.714-7.663,4.785-12.21,6.215c-4.546,1.431-9.057,2.146-13.53,2.146
		c-5.793,0-11.092-1.155-15.896-3.465c-4.803-2.311-8.946-5.391-12.43-9.24c-3.483-3.85-6.179-8.177-8.085-12.98
		c-1.906-4.803-2.86-9.698-2.86-14.685C806.032,222.051,806.93,217.376,808.727,212.793z"/>
	<path fill="none" stroke="#FFFFFF" stroke-width="2" stroke-miterlimit="10" d="M886.331,188.428h21.45v78.101h-21.45V188.428z"/>
	<path fill="none" stroke="#FFFFFF" stroke-width="2" stroke-miterlimit="10" d="M940.23,263.833
		c-4.84-2.236-9.002-5.243-12.485-9.02s-6.16-8.03-8.03-12.76s-2.805-9.625-2.805-14.685c0-5.207,0.99-10.157,2.97-14.85
		s4.748-8.892,8.305-12.595c3.557-3.703,7.773-6.618,12.65-8.745c4.876-2.126,10.211-3.19,16.005-3.19
		c5.94,0,11.33,1.119,16.17,3.355c4.84,2.237,8.983,5.262,12.43,9.075c3.447,3.813,6.105,8.085,7.975,12.815
		c1.87,4.73,2.805,9.588,2.805,14.575c0,5.133-0.972,10.047-2.915,14.74s-4.693,8.891-8.25,12.594
		c-3.557,3.704-7.755,6.638-12.595,8.801c-4.84,2.163-10.193,3.245-16.06,3.245C950.46,267.188,945.07,266.07,940.23,263.833z
		 M939.79,235.233c0.733,2.457,1.833,4.657,3.3,6.6s3.318,3.483,5.555,4.62s4.895,1.705,7.975,1.705s5.756-0.586,8.03-1.76
		s4.125-2.769,5.555-4.785s2.493-4.253,3.19-6.71c0.697-2.457,1.045-4.969,1.045-7.535c0-2.64-0.367-5.17-1.1-7.59
		c-0.733-2.42-1.833-4.602-3.3-6.545s-3.337-3.465-5.61-4.565c-2.273-1.1-4.914-1.65-7.92-1.65c-3.08,0-5.738,0.586-7.975,1.76
		c-2.237,1.173-4.088,2.732-5.555,4.675s-2.548,4.143-3.245,6.6c-0.697,2.457-1.045,4.968-1.045,7.535
		C938.69,230.228,939.057,232.776,939.79,235.233z"/>
	<path fill="none" stroke="#FFFFFF" stroke-width="2" stroke-miterlimit="10" d="M1026.8,266.528h-21.45v-78.101h16.72l31.35,39.71
		v-39.71h21.45v78.101h-17.05l-31.02-38.39V266.528z"/>
	<path fill="none" stroke="#FFFFFF" stroke-width="2" stroke-miterlimit="10" d="M1113.038,188.428h30.03
		c8.653,0,15.895,1.742,21.725,5.225s10.23,8.177,13.2,14.08c2.97,5.903,4.455,12.449,4.455,19.635c0,7.92-1.632,14.813-4.895,20.68
		c-3.264,5.867-7.847,10.414-13.75,13.64c-5.903,3.227-12.815,4.84-20.735,4.84h-30.03V188.428z M1158.579,216.753
		c-1.394-3.043-3.41-5.408-6.05-7.095c-2.64-1.687-5.793-2.53-9.46-2.53h-8.58v40.7h8.58c3.74,0,6.912-0.88,9.515-2.64
		c2.603-1.76,4.602-4.198,5.995-7.315c1.393-3.117,2.09-6.618,2.09-10.505C1160.668,223.335,1159.972,219.796,1158.579,216.753z"/>
	<path fill="none" stroke="#FFFFFF" stroke-width="2" stroke-miterlimit="10" d="M1247.457,266.528h-55.66v-78.101h54.67v18.7
		h-33.22v11h28.38v17.38h-28.38v12.32h34.21V266.528z"/>
	<path fill="none" stroke="#FFFFFF" stroke-width="2" stroke-miterlimit="10" d="M1282.215,188.428h21.449v59.4h35.421v18.7h-56.87
		V188.428z"/>
	<path fill="none" stroke="#FFFFFF" stroke-width="2" stroke-miterlimit="10" d="M1388.584,188.428l24.859,78.101h-21.779
		l-4.73-15.29h-20.79l-4.62,15.29h-21.891l24.971-78.101H1388.584z M1376.594,209.438l-7.26,27.5h14.189L1376.594,209.438z"/>
	<path fill="none" stroke="#FFFFFF" stroke-width="2" stroke-miterlimit="10" d="M1441.382,188.428h21.45v78.101h-21.45V188.428z"/>
	<path fill="none" stroke="#FFFFFF" stroke-width="2" stroke-miterlimit="10" d="M1535.32,225.388l-13.09,28.93h-11.44l-13.09-28.93
		v41.14h-21.45v-78.101h23.43l16.83,36.74l16.94-36.74h23.32v78.101h-21.45V225.388z"/>
	<path fill="none" stroke="#FFFFFF" stroke-width="2" stroke-miterlimit="10" d="M1570.189,188.428h33.66
		c3.812,0,7.333,0.77,10.56,2.31s6.014,3.612,8.36,6.215c2.347,2.603,4.162,5.518,5.445,8.745c1.283,3.227,1.924,6.49,1.924,9.791
		c0,4.62-1.081,8.983-3.244,13.09c-2.164,4.106-5.17,7.462-9.02,10.065c-3.851,2.604-8.342,3.905-13.476,3.905h-12.761v23.98
		h-21.449V188.428z M1602.969,223.848c0.881,0,1.724-0.257,2.53-0.77s1.485-1.394,2.035-2.64s0.825-2.896,0.825-4.95
		c0-2.2-0.312-3.905-0.936-5.115s-1.393-2.053-2.31-2.53c-0.917-0.477-1.815-0.715-2.694-0.715h-10.781v16.72H1602.969z"/>
	<path fill="none" stroke="#FFFFFF" stroke-width="2" stroke-miterlimit="10" d="M1638.717,188.428h35.861
		c3.812,0,7.333,0.77,10.56,2.31s6.013,3.612,8.36,6.215c2.346,2.603,4.161,5.518,5.445,8.745c1.283,3.227,1.924,6.49,1.924,9.791
		c0,3.006-0.439,5.903-1.319,8.69s-2.163,5.335-3.851,7.645c-1.686,2.31-3.703,4.308-6.05,5.995l16.501,28.71h-23.541l-13.75-23.98
		h-8.689v23.98h-21.451V188.428z M1673.697,223.848c0.881,0,1.724-0.33,2.53-0.99c0.807-0.66,1.485-1.613,2.035-2.86
		s0.825-2.75,0.825-4.51c0-1.833-0.312-3.355-0.936-4.565s-1.393-2.145-2.31-2.805c-0.917-0.66-1.815-0.99-2.695-0.99h-12.979v16.72
		H1673.697z"/>
	<path fill="none" stroke="#FFFFFF" stroke-width="2" stroke-miterlimit="10" d="M1768.626,266.528h-55.66v-78.101h54.671v18.7
		h-33.221v11h28.381v17.38h-28.381v12.32h34.21V266.528z"/>
	<path fill="none" stroke="#FFFFFF" stroke-width="2" stroke-miterlimit="10" d="M1800.084,266.528h-21.449v-78.101h16.72
		l31.351,39.71v-39.71h21.449v78.101h-17.05l-31.021-38.39V266.528z"/>
	<path fill="none" stroke="#FFFFFF" stroke-width="2" stroke-miterlimit="10" d="M1899.965,207.128v59.4h-21.451v-59.4h-22.549
		v-18.7h66.439v18.7H1899.965z"/>
	<path fill="none" stroke="#FFFFFF" stroke-width="2" stroke-miterlimit="10" d="M1965.085,188.428l24.86,78.101h-21.781
		l-4.729-15.29h-20.79l-4.62,15.29h-21.89l24.97-78.101H1965.085z M1953.095,209.438l-7.261,27.5h14.191L1953.095,209.438z"/>
</g>
</svg>
